<?xml version="1.0" encoding="UTF-8"?><svg id="Layer_1" xmlns="http://www.w3.org/2000/svg" xmlns:xlink="http://www.w3.org/1999/xlink" viewBox="0 0 854.78 858.75"><defs><style>.cls-1{fill:url(#linear-gradient-2);}.cls-2{fill:#f3f7f9;}.cls-3{fill:#784328;}.cls-4{fill:url(#linear-gradient);}</style><linearGradient id="linear-gradient" x1="621.34" y1="106.69" x2="634.94" y2="974.42" gradientTransform="translate(1308.86 539.91) rotate(-135) scale(1 -1)" gradientUnits="userSpaceOnUse"><stop offset="0" stop-color="#6f3e2a"/><stop offset="1" stop-color="#482217"/></linearGradient><linearGradient id="linear-gradient-2" x1="787" y1="101.18" x2="747.53" y2="966.2" gradientTransform="translate(1308.86 539.91) rotate(-135) scale(1 -1)" gradientUnits="userSpaceOnUse"><stop offset="0" stop-color="#6f3d2a"/><stop offset="1" stop-color="#462015"/></linearGradient></defs><g id="Generative_Object"><path class="cls-2" d="M362.74,417.71c35.65-22.61,71.78-36.79,115.61-61.31-39.52,19.05-80.68,36.09-115.61,61.31Z"/><path class="cls-2" d="M362.74,417.71c35.65-22.61,71.78-36.79,115.61-61.31-39.52,19.05-80.68,36.09-115.61,61.31Z"/><path class="cls-3" d="M455.24,531.09c-117.47,71.43-201.42,178.2-246.81,307-.24.68.08,1.43.74,1.73,86.41,38.67,195.01,11.42,278.7-22.16,83.47-33.49,159.13-85.79,219.8-152.2,51.76-56.66,92.28-123.3,118.72-195.34,31.76-86.54,53.65-268.27-29.6-333.52-.75-.59-1.86-.24-2.15.66-33.91,104.76-82.41,224.05-167.08,298.4-50.14,44-116.26,61.34-172.33,95.43Z"/><path class="cls-4" d="M171.56,785.61c-7.36,34.45,6.57,40.02,35.08,53.05.73.34,1.6-.03,1.87-.79,45.41-128.71,129.33-235.4,246.73-306.79,56.07-34.09,122.19-51.43,172.33-95.43,84.91-74.56,133.45-194.33,167.37-299.31.18-.56-.02-1.19-.5-1.54-55.95-40.89-96.31,68.33-116.5,102.01-20.79,34.64-42.48,75.71-68.93,106.04-82.93,95.15-176.4,99.9-267.11,174.32-74.17,60.85-150.06,173.61-170.33,268.44Z"/><path class="cls-3" d="M.56,519.17c-3.94,60.65,12.05,173,71.44,203.74.93.48,2.04-.19,2.02-1.25-.33-15.38,7.32-35.48,12.71-50.06,35.92-97.2,95.84-199.29,173.64-269.09,84.4-75.72,195.6-102.79,278.38-182.93,58.37-56.51,93.38-122.71,119.53-198.29.24-.68-.09-1.44-.75-1.73C621.94,4.33,571.17-1.14,532.78.19,274.38,9.13,17.28,261.73.56,519.17Z"/><path class="cls-1" d="M86.73,671.6c-5.57,15.05-13.54,35.99-12.66,51.54.03.51.35.97.81,1.18,68.97,31.29,142.12-149.05,174.88-194.54,42.01-58.36,77.25-89.44,112.97-112.06,35.65-22.61,71.78-36.79,115.61-61.31,15.53-8.68,32.01-18.67,49.8-30.77,71.08-48.43,139.07-143.68,161.06-227.35,11.76-44.73,14.62-58.13-29.13-77.6-.73-.33-1.6.05-1.86.81-26.15,75.5-61.15,141.63-119.46,198.09-82.78,80.15-193.98,107.21-278.38,182.93-77.8,69.8-137.73,171.89-173.64,269.09Z"/></g></svg>